<svg xmlns="http://www.w3.org/2000/svg" xmlns:xlink="http://www.w3.org/1999/xlink" id="Design" x="0" y="0" baseProfile="tiny" version="1.2" viewBox="0 0 159 187" xml:space="preserve"><g><line x1="82.5" x2="87.5" y1="69.5" y2="64.5" fill="none" stroke="#000" stroke-linecap="round" stroke-linejoin="round" stroke-miterlimit="10" stroke-width="3"/><line x1="82.5" x2="90.5" y1="78.5" y2="78.5" fill="none" stroke="#000" stroke-linecap="round" stroke-linejoin="round" stroke-miterlimit="10" stroke-width="3"/><polygon fill="#FFF" stroke="#000" stroke-linecap="round" stroke-linejoin="round" stroke-miterlimit="10" stroke-width="4" points="76 122 34 122 34 48 76 48"/><line x1="34.5" x2="75.5" y1="111.5" y2="111.5" fill="#FFF" stroke="#000" stroke-linecap="round" stroke-linejoin="round" stroke-miterlimit="10" stroke-width="3"/><line x1="75.5" x2="34.5" y1="54.5" y2="54.5" fill="none" stroke="#000" stroke-linecap="round" stroke-linejoin="round" stroke-miterlimit="10" stroke-width="3"/><line x1="57.5" x2="52.5" y1="116.5" y2="116.5" fill="#FFF" stroke="#000" stroke-linecap="round" stroke-linejoin="round" stroke-miterlimit="10" stroke-width="3"/><rect width="12" height="12" x="40.5" y="60.5" fill="#AAA" stroke="#AAA" stroke-linecap="round" stroke-linejoin="round" stroke-miterlimit="10" stroke-width="3"/><rect width="12" height="12" x="57.5" y="60.5" fill="#AAA" stroke="#AAA" stroke-linecap="round" stroke-linejoin="round" stroke-miterlimit="10" stroke-width="3"/><rect width="12" height="12" x="40.5" y="77.5" fill="#AAA" stroke="#AAA" stroke-linecap="round" stroke-linejoin="round" stroke-miterlimit="10" stroke-width="3"/><rect width="12" height="12" x="57.5" y="77.5" fill="#0A5" stroke="#000" stroke-linecap="round" stroke-linejoin="round" stroke-miterlimit="10" stroke-width="3"/><rect width="12" height="12" x="40.5" y="94.5" fill="#AAA" stroke="#AAA" stroke-linecap="round" stroke-linejoin="round" stroke-miterlimit="10" stroke-width="3"/><rect width="12" height="12" x="57.5" y="94.5" fill="#AAA" stroke="#AAA" stroke-linecap="round" stroke-linejoin="round" stroke-miterlimit="10" stroke-width="3"/></g><g><g><path fill="#FFF" stroke="#000" stroke-linecap="round" stroke-linejoin="round" stroke-miterlimit="10" stroke-width="4" d="M97,116"/><polyline fill="#FFF" stroke="#000" stroke-linecap="round" stroke-linejoin="round" stroke-miterlimit="10" stroke-width="4" points="159 185 104 130 95 130 85 120 85 108 68 91 68 86 70 84 75 84 92 101 101 92 109 92 124 107 124 114 158.9 148.1"/><line x1="98.5" x2="102.5" y1="95.5" y2="99.5" fill="#FFF" stroke="#000" stroke-linecap="round" stroke-linejoin="round" stroke-miterlimit="10" stroke-width="3"/><line x1="92.5" x2="96.5" y1="101.5" y2="105.5" fill="#FFF" stroke="#000" stroke-linecap="round" stroke-linejoin="round" stroke-miterlimit="10" stroke-width="3"/><line x1="85.5" x2="99.5" y1="108.5" y2="122.5" fill="#FFF" stroke="#000" stroke-linecap="round" stroke-linejoin="round" stroke-miterlimit="10" stroke-width="3"/><line x1="86.5" x2="85.5" y1="101.5" y2="102.5" fill="#FFF" stroke="#000" stroke-linecap="round" stroke-linejoin="round" stroke-miterlimit="10" stroke-width="3"/><line x1="97.5" x2="99.5" y1="113.5" y2="111.5" fill="#FFF" stroke="#000" stroke-linecap="round" stroke-linejoin="round" stroke-miterlimit="10" stroke-width="3"/><line x1="103.5" x2="104.5" y1="107.5" y2="106.5" fill="#FFF" stroke="#000" stroke-linecap="round" stroke-linejoin="round" stroke-miterlimit="10" stroke-width="3"/><line x1="108.5" x2="110.5" y1="102.5" y2="100.5" fill="#FFF" stroke="#000" stroke-linecap="round" stroke-linejoin="round" stroke-miterlimit="10" stroke-width="3"/></g></g></svg>