<svg xmlns="http://www.w3.org/2000/svg" xmlns:xlink="http://www.w3.org/1999/xlink" id="Design" x="0" y="0" baseProfile="tiny" version="1.2" viewBox="0 0 144 168" xml:space="preserve"><rect width="42" height="74" x="34" y="48" fill="#FFF" stroke="#000" stroke-linecap="round" stroke-linejoin="round" stroke-miterlimit="10" stroke-width="4"/><line x1="34.5" x2="75.5" y1="111.5" y2="111.5" fill="none" stroke="#000" stroke-linecap="round" stroke-linejoin="round" stroke-miterlimit="10" stroke-width="3"/><line x1="75.5" x2="34.5" y1="54.5" y2="54.5" fill="none" stroke="#000" stroke-linecap="round" stroke-linejoin="round" stroke-miterlimit="10" stroke-width="3"/><line x1="57.5" x2="52.5" y1="116.5" y2="116.5" fill="none" stroke="#000" stroke-linecap="round" stroke-linejoin="round" stroke-miterlimit="10" stroke-width="3"/><polygon fill="#0A5" stroke="#000" stroke-linecap="round" stroke-linejoin="round" stroke-miterlimit="10" stroke-width="3" points="66.5 89.5 60.5 89.5 57.5 86.5 57.5 80.5 60.5 77.5 66.5 77.5 69.5 80.5 69.5 86.5"/><polygon fill="red" stroke="#000" stroke-linecap="round" stroke-linejoin="round" stroke-miterlimit="10" stroke-width="3" points="49.5 89.5 43.5 89.5 40.5 86.5 40.5 80.5 43.5 77.5 49.5 77.5 52.5 80.5 52.5 86.5"/><line x1="82.5" x2="87.5" y1="69.5" y2="64.5" fill="none" stroke="#000" stroke-linecap="round" stroke-linejoin="round" stroke-miterlimit="10" stroke-width="3"/><line x1="82.5" x2="90.5" y1="78.5" y2="78.5" fill="none" stroke="#000" stroke-linecap="round" stroke-linejoin="round" stroke-miterlimit="10" stroke-width="3"/><g><g><path fill="#FFF" stroke="#000" stroke-linecap="round" stroke-linejoin="round" stroke-miterlimit="10" stroke-width="4" d="M94,116"/><polyline fill="#FFF" stroke="#000" stroke-linecap="round" stroke-linejoin="round" stroke-miterlimit="10" stroke-width="4" points="155 184 101 130 92 130 82 120 82 108 65 91 65 86 67 84 72 84 89 101 98 92 106 92 121 107 121 114 155 148"/><line x1="95.5" x2="99.5" y1="95.5" y2="99.5" fill="none" stroke="#000" stroke-linecap="round" stroke-linejoin="round" stroke-miterlimit="10" stroke-width="3"/><line x1="89.5" x2="93.5" y1="101.5" y2="105.5" fill="none" stroke="#000" stroke-linecap="round" stroke-linejoin="round" stroke-miterlimit="10" stroke-width="3"/><line x1="82.5" x2="96.5" y1="108.5" y2="122.5" fill="none" stroke="#000" stroke-linecap="round" stroke-linejoin="round" stroke-miterlimit="10" stroke-width="3"/><line x1="83.5" x2="82.5" y1="101.5" y2="102.5" fill="none" stroke="#000" stroke-linecap="round" stroke-linejoin="round" stroke-miterlimit="10" stroke-width="3"/><line x1="94.5" x2="96.5" y1="113.5" y2="111.5" fill="none" stroke="#000" stroke-linecap="round" stroke-linejoin="round" stroke-miterlimit="10" stroke-width="3"/><line x1="100.5" x2="101.5" y1="107.5" y2="106.5" fill="none" stroke="#000" stroke-linecap="round" stroke-linejoin="round" stroke-miterlimit="10" stroke-width="3"/><line x1="105.5" x2="107.5" y1="102.5" y2="100.5" fill="none" stroke="#000" stroke-linecap="round" stroke-linejoin="round" stroke-miterlimit="10" stroke-width="3"/></g></g></svg>