<svg xmlns="http://www.w3.org/2000/svg" xmlns:xlink="http://www.w3.org/1999/xlink" id="Comments" x="0" y="0" display="none" enable-background="new 0 0 25 25" version="1.1" viewBox="0 0 25 25" xml:space="preserve"><polygon fill="#FFF" stroke="#000" stroke-linecap="round" stroke-linejoin="round" stroke-miterlimit="10" stroke-width="2" points="13 4 11 6 11 9 13 11 16 11 18 9 18 6 16 4 13 4" display="inline"/><line x1="7" x2="9" y1="1" y2="3" fill="none" stroke="#000" stroke-linecap="round" stroke-linejoin="round" stroke-miterlimit="10" stroke-width="2" display="inline"/><line x1="22" x2="20" y1="1" y2="3" fill="none" stroke="#000" stroke-linecap="round" stroke-linejoin="round" stroke-miterlimit="10" stroke-width="2" display="inline"/><polygon fill="#FFF" stroke="#000" stroke-linecap="round" stroke-linejoin="round" stroke-miterlimit="10" stroke-width="2" points="22 24 24 22 24 18 22 16 16 16 13 13 9 13 6 16 3 16 1 18 1 22 3 24 22 24" display="inline"/><line x1="6" x2="9" y1="16" y2="19" fill="none" stroke="#000" stroke-linecap="round" stroke-linejoin="round" stroke-miterlimit="10" stroke-width="2" display="inline"/><line x1="21" x2="24" y1="8" y2="8" fill="none" stroke="#000" stroke-linecap="round" stroke-linejoin="round" stroke-miterlimit="10" stroke-width="2" display="inline"/><line x1="5" x2="8" y1="8" y2="8" fill="none" stroke="#000" stroke-linecap="round" stroke-linejoin="round" stroke-miterlimit="10" stroke-width="2" display="inline"/></svg>