<svg xmlns="http://www.w3.org/2000/svg" xmlns:xlink="http://www.w3.org/1999/xlink" id="Comments" x="0" y="0" display="none" enable-background="new 0 0 80 80" version="1.1" viewBox="0 0 80 80" xml:space="preserve"><polygon fill="#FFF" stroke="#000" stroke-linecap="round" stroke-linejoin="round" stroke-miterlimit="10" stroke-width="4" points="67 39 72 34 72 24 65 17 47 17 42 12 28 12 21 19 21 19 12 19 7 24 7 34 12 39 67 39" display="inline"/><line x1="17.5" x2="17.5" y1="52.5" y2="46.5" fill="#FFF" stroke="#000" stroke-linecap="round" stroke-linejoin="round" stroke-miterlimit="10" stroke-width="3" display="inline"/><line x1="38.5" x2="44.5" y1="49.5" y2="49.5" fill="#FFF" stroke="#000" stroke-linecap="round" stroke-linejoin="round" stroke-miterlimit="10" stroke-width="3" display="inline"/><line x1="41.5" x2="41.5" y1="52.5" y2="46.5" fill="#FFF" stroke="#000" stroke-linecap="round" stroke-linejoin="round" stroke-miterlimit="10" stroke-width="3" display="inline"/><line x1="41.5" x2="41.5" y1="70.5" y2="64.5" fill="#FFF" stroke="#000" stroke-linecap="round" stroke-linejoin="round" stroke-miterlimit="10" stroke-width="3" display="inline"/><line x1="29.5" x2="29.5" y1="60.5" y2="54.5" fill="#FFF" stroke="#000" stroke-linecap="round" stroke-linejoin="round" stroke-miterlimit="10" stroke-width="3" display="inline"/><line x1="14.5" x2="20.5" y1="67.5" y2="67.5" fill="#FFF" stroke="#000" stroke-linecap="round" stroke-linejoin="round" stroke-miterlimit="10" stroke-width="3" display="inline"/><line x1="17.5" x2="17.5" y1="70.5" y2="64.5" fill="#FFF" stroke="#000" stroke-linecap="round" stroke-linejoin="round" stroke-miterlimit="10" stroke-width="3" display="inline"/><line x1="49.5" x2="55.5" y1="57.5" y2="57.5" fill="#FFF" stroke="#000" stroke-linecap="round" stroke-linejoin="round" stroke-miterlimit="10" stroke-width="3" display="inline"/><line x1="52.5" x2="52.5" y1="60.5" y2="54.5" fill="#FFF" stroke="#000" stroke-linecap="round" stroke-linejoin="round" stroke-miterlimit="10" stroke-width="3" display="inline"/><polyline fill="none" stroke="#000" stroke-linecap="round" stroke-linejoin="round" stroke-miterlimit="10" stroke-width="3" points="21.5 19.5 31.5 19.5 36.5 24.5" display="inline"/></svg>