<svg xmlns="http://www.w3.org/2000/svg" xmlns:xlink="http://www.w3.org/1999/xlink" id="Layer_1" x="0" y="0" enable-background="new 1682.7 1019 49 49.6" version="1.1" viewBox="1682.7 1019 49 49.6" xml:space="preserve"><polygon fill="#FFF" stroke="#000" stroke-linecap="round" stroke-linejoin="round" stroke-miterlimit="10" stroke-width="3" points="1684.2 1044.5 1684.2 1067.1 1730.2 1067.1 1730.2 1061.2 1722 1054.8 1713.6 1054.9 1700 1043.5 1692.4 1050.9"/><line x1="1718.8" x2="1718.8" y1="1066.9" y2="1062.6" fill="none" stroke="#000" stroke-linecap="round" stroke-linejoin="round" stroke-miterlimit="10" stroke-width="3"/><polyline fill="none" stroke="#000" stroke-linecap="round" stroke-linejoin="round" stroke-miterlimit="10" stroke-width="3" points="1696 1062.5 1700.6 1062.5 1730 1062.5"/><line x1="1699" x2="1704" y1="1052" y2="1047" fill="none" stroke="#000" stroke-linecap="round" stroke-linejoin="round" stroke-miterlimit="10" stroke-width="3"/><line x1="1702.3" x2="1707" y1="1054.8" y2="1050" fill="none" stroke="#000" stroke-linecap="round" stroke-linejoin="round" stroke-miterlimit="10" stroke-width="3"/><line x1="1705.5" x2="1710.1" y1="1057.6" y2="1053" fill="none" stroke="#000" stroke-linecap="round" stroke-linejoin="round" stroke-miterlimit="10" stroke-width="3"/><path fill="none" stroke="#000" stroke-linecap="round" stroke-linejoin="round" stroke-miterlimit="10" stroke-width="3" d="M1703.4,1055.9"/><path fill="none" stroke="#000" stroke-linecap="round" stroke-linejoin="round" stroke-miterlimit="10" stroke-width="3" d="M1703.4,1055.9"/><polyline fill="none" stroke="#000" stroke-linecap="round" stroke-linejoin="round" stroke-miterlimit="10" stroke-width="3" points="1699 1067.1 1693 1059.3 1684.7 1059.3"/><polygon fill="#FFF" stroke="#000" stroke-linecap="round" stroke-linejoin="round" stroke-miterlimit="10" stroke-width="3" points="1702.5 1020.5 1702.5 1027.5 1697.5 1027.5 1706.5 1036.5 1715.5 1027.5 1710.5 1027.5 1710.5 1020.5"/></svg>