<svg xmlns="http://www.w3.org/2000/svg" xmlns:xlink="http://www.w3.org/1999/xlink" id="Comments" x="0" y="0" display="none" enable-background="new 0 0 50 50" version="1.1" viewBox="0 0 50 50" xml:space="preserve"><polygon fill="#FFF" stroke="#000" stroke-linecap="round" stroke-linejoin="round" stroke-miterlimit="10" stroke-width="3" points="42.5 45.5 46.5 41.5 46.5 35.5 43.5 32.5 30.5 32.5 24.5 26.5 15.5 26.5 10.5 31.5 5.5 31.5 1.5 35.5 1.5 41.5 5.5 45.5 42.5 45.5" display="inline"/><polyline fill="none" stroke="#000" stroke-linecap="round" stroke-linejoin="round" stroke-miterlimit="10" stroke-width="2" points="12 32 19 32 22 35" display="inline"/><polygon fill="#FFF" stroke="#000" stroke-linecap="round" stroke-linejoin="round" stroke-miterlimit="10" stroke-width="3" points="30.5 9.5 26.5 13.5 26.5 18.5 30.5 22.5 35.5 22.5 39.5 18.5 39.5 13.5 35.5 9.5 30.5 9.5" display="inline"/><line x1="33" x2="33" y1="1" y2="5" fill="none" stroke="#000" stroke-linecap="round" stroke-linejoin="round" stroke-miterlimit="10" stroke-width="2" display="inline"/><line x1="44" x2="41" y1="5" y2="8" fill="none" stroke="#000" stroke-linecap="round" stroke-linejoin="round" stroke-miterlimit="10" stroke-width="2" display="inline"/><line x1="22" x2="25" y1="5" y2="8" fill="none" stroke="#000" stroke-linecap="round" stroke-linejoin="round" stroke-miterlimit="10" stroke-width="2" display="inline"/><line x1="44" x2="49" y1="16" y2="16" fill="none" stroke="#000" stroke-linecap="round" stroke-linejoin="round" stroke-miterlimit="10" stroke-width="2" display="inline"/><line x1="17" x2="22" y1="16" y2="16" fill="none" stroke="#000" stroke-linecap="round" stroke-linejoin="round" stroke-miterlimit="10" stroke-width="2" display="inline"/></svg>