<svg xmlns="http://www.w3.org/2000/svg" xmlns:xlink="http://www.w3.org/1999/xlink" id="Layer_1" x="0" y="0" baseProfile="tiny" version="1.2" viewBox="0 0 49 30" xml:space="preserve"><polygon fill="none" stroke="#000" stroke-linecap="round" stroke-linejoin="round" stroke-miterlimit="10" stroke-width="2" points="24.8 8 27.6 5.1 31.2 5.1 31.2 8.1 28.3 11 24.8 11"/><polygon fill="none" stroke="#000" stroke-linecap="round" stroke-linejoin="round" stroke-miterlimit="10" stroke-width="2" points="21.4 7.2 21.4 3.2 23.6 1 25.7 3.2 25.7 7.2 24.8 9.4"/><polygon fill="#FFF" stroke="#000" stroke-linecap="round" stroke-linejoin="round" stroke-miterlimit="10" stroke-width="3" points="1.5 5.4 1.5 28.5 47.5 28.5 47.5 22.6 38.9 16.5 30.8 16.5 17 4.7 9.5 12"/><line id="XMLID_19_" x1="35.8" x2="35.8" y1="27.8" y2="23.5" fill="none" stroke="#000" stroke-linecap="round" stroke-linejoin="round" stroke-miterlimit="10" stroke-width="3"/><polyline id="XMLID_18_" fill="none" stroke="#000" stroke-linecap="round" stroke-linejoin="round" stroke-miterlimit="10" stroke-width="3" points="13 23.5 17.6 23.5 47 23.5"/><line id="XMLID_16_" x1="16" x2="21" y1="12.9" y2="7.9" fill="none" stroke="#000" stroke-linecap="round" stroke-linejoin="round" stroke-miterlimit="10" stroke-width="2"/><line id="XMLID_15_" x1="19.3" x2="24" y1="15.7" y2="10.9" fill="none" stroke="#000" stroke-linecap="round" stroke-linejoin="round" stroke-miterlimit="10" stroke-width="2"/><line id="XMLID_12_" x1="22.5" x2="27.1" y1="18.6" y2="14" fill="none" stroke="#000" stroke-linecap="round" stroke-linejoin="round" stroke-miterlimit="10" stroke-width="2"/><path fill="none" stroke="#000" stroke-linecap="round" stroke-linejoin="round" stroke-miterlimit="10" stroke-width="3" d="M20.4,16.9"/><path fill="none" stroke="#000" stroke-linecap="round" stroke-linejoin="round" stroke-miterlimit="10" stroke-width="3" d="M20.4,16.9"/><polyline fill="none" stroke="#000" stroke-linecap="round" stroke-linejoin="round" stroke-miterlimit="10" stroke-width="3" points="16 28.1 10 20.3 1.7 20.3"/></svg>