<svg xmlns="http://www.w3.org/2000/svg" xmlns:xlink="http://www.w3.org/1999/xlink" id="Comments" x="0" y="0" display="none" enable-background="new 0 0 80 80" version="1.1" viewBox="0 0 80 80" xml:space="preserve"><polyline fill="#FFF" stroke="#000" stroke-linecap="round" stroke-linejoin="round" stroke-miterlimit="10" stroke-width="4" points="63 69 69 45 74 24 67 17 39 17 34 38 28 62 35 69 63 69" display="inline"/><line x1="48" x2="50" y1="17" y2="9" fill="none" stroke="#000" stroke-linecap="round" stroke-linejoin="round" stroke-miterlimit="10" stroke-width="4" display="inline"/><polyline fill="none" stroke="#000" stroke-linecap="round" stroke-linejoin="round" stroke-miterlimit="10" stroke-width="4" points="67 17 62 38 56 62 28 62" display="inline"/><polyline fill="none" stroke="#000" stroke-linecap="round" stroke-linejoin="round" stroke-miterlimit="10" stroke-width="4" points="6 58 27 37 13 23" display="inline"/><line x1="38.5" x2="42.5" y1="43.5" y2="43.5" fill="none" stroke="#000" stroke-linecap="round" stroke-linejoin="round" stroke-miterlimit="10" stroke-width="3" display="inline"/><line x1="49.5" x2="53.5" y1="43.5" y2="43.5" fill="none" stroke="#000" stroke-linecap="round" stroke-linejoin="round" stroke-miterlimit="10" stroke-width="3" display="inline"/><line x1="36.5" x2="40.5" y1="49.5" y2="49.5" fill="none" stroke="#000" stroke-linecap="round" stroke-linejoin="round" stroke-miterlimit="10" stroke-width="3" display="inline"/><line x1="47.5" x2="51.5" y1="49.5" y2="49.5" fill="none" stroke="#000" stroke-linecap="round" stroke-linejoin="round" stroke-miterlimit="10" stroke-width="3" display="inline"/><line x1="40.5" x2="44.5" y1="37.5" y2="37.5" fill="none" stroke="#000" stroke-linecap="round" stroke-linejoin="round" stroke-miterlimit="10" stroke-width="3" display="inline"/><line x1="51.5" x2="55.5" y1="37.5" y2="37.5" fill="none" stroke="#000" stroke-linecap="round" stroke-linejoin="round" stroke-miterlimit="10" stroke-width="3" display="inline"/><line x1="34.5" x2="38.5" y1="55.5" y2="55.5" fill="none" stroke="#000" stroke-linecap="round" stroke-linejoin="round" stroke-miterlimit="10" stroke-width="3" display="inline"/><line x1="45.5" x2="49.5" y1="55.5" y2="55.5" fill="none" stroke="#000" stroke-linecap="round" stroke-linejoin="round" stroke-miterlimit="10" stroke-width="3" display="inline"/><line x1="56.5" x2="62.5" y1="62.5" y2="68.5" fill="none" stroke="#000" stroke-linecap="round" stroke-linejoin="round" stroke-miterlimit="10" stroke-width="3" display="inline"/><polygon fill="none" stroke="#000" stroke-linecap="round" stroke-linejoin="round" stroke-miterlimit="10" stroke-width="3" points="57.5 31.5 41.5 31.5 43.5 23.5 59.5 23.5 57.5 31.5" display="inline"/><polyline fill="none" stroke="#000" stroke-linecap="round" stroke-linejoin="round" stroke-miterlimit="10" stroke-width="4" points="12 30 12 22 20 22" display="inline"/></svg>