<svg xmlns="http://www.w3.org/2000/svg" xmlns:xlink="http://www.w3.org/1999/xlink" id="Comments" x="0" y="0" display="none" enable-background="new 0 0 80 80" version="1.1" viewBox="0 0 80 80" xml:space="preserve"><polygon fill="#FFF" stroke="#000" stroke-linecap="round" stroke-linejoin="round" stroke-miterlimit="10" stroke-width="4" points="20 46 27 53 32 53 39 60 48 60 55 53 60 53 67 46 67 33 60 26 54 26 48 20 39 20 33 26 27 26 20 33 20 46" display="inline"/><line x1="33" x2="38" y1="26" y2="31" fill="none" stroke="#000" stroke-linecap="round" stroke-linejoin="round" stroke-miterlimit="10" stroke-width="4" display="inline"/><line x1="32" x2="38" y1="53" y2="47" fill="none" stroke="#000" stroke-linecap="round" stroke-linejoin="round" stroke-miterlimit="10" stroke-width="4" display="inline"/><line x1="72.5" x2="47.5" y1="42.5" y2="42.5" fill="none" stroke="#000" stroke-linecap="round" stroke-linejoin="round" stroke-miterlimit="10" stroke-width="3" display="inline"/><line x1="78.5" x2="47.5" y1="36.5" y2="36.5" fill="none" stroke="#000" stroke-linecap="round" stroke-linejoin="round" stroke-miterlimit="10" stroke-width="3" display="inline"/><polygon fill="#FFF" stroke="#000" stroke-linecap="round" stroke-linejoin="round" stroke-miterlimit="10" stroke-width="3" points="29.5 12.5 24.5 17.5 19.5 12.5 24.5 7.5 29.5 12.5" display="inline"/><polygon fill="#FFF" stroke="#000" stroke-linecap="round" stroke-linejoin="round" stroke-miterlimit="10" stroke-width="3" points="12.5 37.5 7.5 42.5 2.5 37.5 7.5 32.5 12.5 37.5" display="inline"/><polygon fill="#FFF" stroke="#000" stroke-linecap="round" stroke-linejoin="round" stroke-miterlimit="10" stroke-width="3" points="34.5 67.5 29.5 72.5 24.5 67.5 29.5 62.5 34.5 67.5" display="inline"/></svg>