<svg xmlns="http://www.w3.org/2000/svg" xmlns:xlink="http://www.w3.org/1999/xlink" id="Comments" x="0" y="0" display="none" enable-background="new 0 0 50 50" version="1.1" viewBox="0 0 50 50" xml:space="preserve"><polygon fill="#FFF" stroke="#000" stroke-linecap="round" stroke-linejoin="round" stroke-miterlimit="10" stroke-width="3" points="36.5 25.5 40.5 29.5 40.5 40.5 33.5 47.5 17.5 47.5 10.5 40.5 10.5 29.5 18.5 21.5 29.5 21.5 32.5 18.5 32.5 12.5 29.5 9.5 17.5 9.5 14.5 12.5 14.5 18.5 17.5 21.5 18.5 21.5 12.5 27.5 6.5 21.5 6.5 9.5 13.5 2.5 33.5 2.5 40.5 9.5 40.5 21.5 32.5 29.5 21.5 29.5 18.5 32.5 18.5 36.5 21.5 39.5 30.5 39.5 33.5 36.5 33.5 32.5 30.5 29.5 32.5 29.5 36.5 25.5" display="inline"/><line x1="21" x2="24" y1="26" y2="26" fill="none" stroke="#000" stroke-linecap="round" stroke-linejoin="round" stroke-miterlimit="10" stroke-width="2" display="inline"/><line x1="27" x2="30" y1="25" y2="25" fill="none" stroke="#000" stroke-linecap="round" stroke-linejoin="round" stroke-miterlimit="10" stroke-width="2" display="inline"/></svg>