<svg xmlns="http://www.w3.org/2000/svg" xmlns:xlink="http://www.w3.org/1999/xlink" id="Comments" x="0" y="0" display="none" enable-background="new 0 0 50 50" version="1.1" viewBox="0 0 50 50" xml:space="preserve"><polygon fill="#FFF" stroke="#000" stroke-linecap="round" stroke-linejoin="round" stroke-miterlimit="10" stroke-width="3" points="47.5 47.5 21.5 47.5 21.5 5.5 47.5 5.5 47.5 47.5" display="inline"/><line x1="29.5" x2="29.5" y1="5.5" y2="1.5" fill="none" stroke="#000" stroke-linecap="round" stroke-linejoin="round" stroke-miterlimit="10" stroke-width="3" display="inline"/><polygon fill="none" stroke="#000" stroke-linecap="round" stroke-linejoin="round" stroke-miterlimit="10" stroke-width="2" points="41 23 27 23 27 11 42 11 42 23" display="inline"/><line x1="41" x2="37" y1="29" y2="29" fill="none" stroke="#000" stroke-linecap="round" stroke-linejoin="round" stroke-miterlimit="10" stroke-width="2" display="inline"/><line x1="41" x2="37" y1="35" y2="35" fill="none" stroke="#000" stroke-linecap="round" stroke-linejoin="round" stroke-miterlimit="10" stroke-width="2" display="inline"/><line x1="41" x2="37" y1="41" y2="41" fill="none" stroke="#000" stroke-linecap="round" stroke-linejoin="round" stroke-miterlimit="10" stroke-width="2" display="inline"/><line x1="32" x2="28" y1="29" y2="29" fill="none" stroke="#000" stroke-linecap="round" stroke-linejoin="round" stroke-miterlimit="10" stroke-width="2" display="inline"/><line x1="32" x2="28" y1="35" y2="35" fill="none" stroke="#000" stroke-linecap="round" stroke-linejoin="round" stroke-miterlimit="10" stroke-width="2" display="inline"/><line x1="32" x2="28" y1="41" y2="41" fill="none" stroke="#000" stroke-linecap="round" stroke-linejoin="round" stroke-miterlimit="10" stroke-width="2" display="inline"/><line x1="7.5" x2="15.5" y1="19.5" y2="27.5" fill="none" stroke="#000" stroke-linecap="round" stroke-linejoin="round" stroke-miterlimit="10" stroke-width="3" display="inline"/><line x1="7.5" x2="15.5" y1="47.5" y2="39.5" fill="none" stroke="#000" stroke-linecap="round" stroke-linejoin="round" stroke-miterlimit="10" stroke-width="3" display="inline"/><line x1="11.5" x2="3.5" y1="33.5" y2="33.5" fill="none" stroke="#000" stroke-linecap="round" stroke-linejoin="round" stroke-miterlimit="10" stroke-width="3" display="inline"/></svg>