<svg xmlns="http://www.w3.org/2000/svg" xmlns:xlink="http://www.w3.org/1999/xlink" id="Comments" x="0" y="0" display="none" enable-background="new 0 0 25 25" version="1.1" viewBox="0 0 25 25" xml:space="preserve"><polygon fill="#FFF" stroke="#000" stroke-linecap="round" stroke-linejoin="round" stroke-miterlimit="10" stroke-width="2" points="16 21 16 12 18 10 18 7 15 7 15 4 12 1 9 4 9 7 6 7 6 10 8 12 8 21" display="inline"/><line x1="15" x2="8" y1="10" y2="17" fill="none" stroke="#000" stroke-linecap="round" stroke-linejoin="round" stroke-miterlimit="10" stroke-width="2" display="inline"/><line x1="16" x2="9" y1="14" y2="21" fill="none" stroke="#000" stroke-linecap="round" stroke-linejoin="round" stroke-miterlimit="10" stroke-width="2" display="inline"/><line x1="6" x2="18" y1="10" y2="10" fill="none" stroke="#000" stroke-linecap="round" stroke-linejoin="round" stroke-miterlimit="10" stroke-width="2" display="inline"/><line x1="9" x2="15" y1="7" y2="7" fill="none" stroke="#000" stroke-linecap="round" stroke-linejoin="round" stroke-miterlimit="10" stroke-width="2" display="inline"/><polyline fill="none" stroke="#000" stroke-linecap="round" stroke-linejoin="round" stroke-miterlimit="10" stroke-width="2" points="17 21 19 21 22 24" display="inline"/><polyline fill="none" stroke="#000" stroke-linecap="round" stroke-linejoin="round" stroke-miterlimit="10" stroke-width="2" points="9 21 5 21 2 24" display="inline"/><line x1="19" x2="23" y1="3" y2="3" fill="none" stroke="#000" stroke-linecap="round" stroke-linejoin="round" stroke-miterlimit="10" stroke-width="2" display="inline"/><line x1="1" x2="24" y1="24" y2="24" fill="none" stroke="#000" stroke-linecap="round" stroke-linejoin="round" stroke-miterlimit="10" stroke-width="2" display="inline"/></svg>