<svg xmlns="http://www.w3.org/2000/svg" xmlns:xlink="http://www.w3.org/1999/xlink" id="Comments" x="0" y="0" display="none" enable-background="new 0 0 80 80" version="1.1" viewBox="0 0 80 80" xml:space="preserve"><polyline fill="#FFF" stroke="#000" stroke-linecap="round" stroke-linejoin="round" stroke-miterlimit="10" stroke-width="4" points="42 70 48 46 53 25 46 18 18 18 13 39 7 63 14 70 42 70" display="inline"/><line x1="27" x2="29" y1="18" y2="10" fill="none" stroke="#000" stroke-linecap="round" stroke-linejoin="round" stroke-miterlimit="10" stroke-width="4" display="inline"/><polyline fill="none" stroke="#000" stroke-linecap="round" stroke-linejoin="round" stroke-miterlimit="10" stroke-width="4" points="46 18 41 39 35 63 7 63" display="inline"/><line x1="17.5" x2="21.5" y1="44.5" y2="44.5" fill="none" stroke="#000" stroke-linecap="round" stroke-linejoin="round" stroke-miterlimit="10" stroke-width="3" display="inline"/><line x1="28.5" x2="32.5" y1="44.5" y2="44.5" fill="none" stroke="#000" stroke-linecap="round" stroke-linejoin="round" stroke-miterlimit="10" stroke-width="3" display="inline"/><line x1="15.5" x2="19.5" y1="50.5" y2="50.5" fill="none" stroke="#000" stroke-linecap="round" stroke-linejoin="round" stroke-miterlimit="10" stroke-width="3" display="inline"/><line x1="26.5" x2="30.5" y1="50.5" y2="50.5" fill="none" stroke="#000" stroke-linecap="round" stroke-linejoin="round" stroke-miterlimit="10" stroke-width="3" display="inline"/><line x1="19.5" x2="23.5" y1="38.5" y2="38.5" fill="none" stroke="#000" stroke-linecap="round" stroke-linejoin="round" stroke-miterlimit="10" stroke-width="3" display="inline"/><line x1="30.5" x2="34.5" y1="38.5" y2="38.5" fill="none" stroke="#000" stroke-linecap="round" stroke-linejoin="round" stroke-miterlimit="10" stroke-width="3" display="inline"/><line x1="13.5" x2="17.5" y1="56.5" y2="56.5" fill="none" stroke="#000" stroke-linecap="round" stroke-linejoin="round" stroke-miterlimit="10" stroke-width="3" display="inline"/><line x1="24.5" x2="28.5" y1="56.5" y2="56.5" fill="none" stroke="#000" stroke-linecap="round" stroke-linejoin="round" stroke-miterlimit="10" stroke-width="3" display="inline"/><line x1="35.5" x2="41.5" y1="63.5" y2="69.5" fill="none" stroke="#000" stroke-linecap="round" stroke-linejoin="round" stroke-miterlimit="10" stroke-width="3" display="inline"/><polygon fill="none" stroke="#000" stroke-linecap="round" stroke-linejoin="round" stroke-miterlimit="10" stroke-width="3" points="36.5 32.5 20.5 32.5 22.5 24.5 38.5 24.5 36.5 32.5" display="inline"/><line x1="58" x2="72" y1="37" y2="23" fill="none" stroke="#000" stroke-linecap="round" stroke-linejoin="round" stroke-miterlimit="10" stroke-width="4" display="inline"/><polyline fill="none" stroke="#000" stroke-linecap="round" stroke-linejoin="round" stroke-miterlimit="10" stroke-width="4" points="73 30 73 22 65 22" display="inline"/></svg>