<svg xmlns="http://www.w3.org/2000/svg" xmlns:xlink="http://www.w3.org/1999/xlink" id="Comments" x="0" y="0" display="none" enable-background="new 0 0 80 80" version="1.1" viewBox="0 0 80 80" xml:space="preserve"><polygon fill="none" stroke="#000" stroke-linecap="round" stroke-linejoin="round" stroke-miterlimit="10" stroke-width="3" points="65.5 60.5 73.5 60.5 73.5 16.5 13.5 16.5 13.5 60.5 53.5 60.5 65.5 72.5" display="inline"/><path fill="#FFF" stroke="#000" stroke-linecap="round" stroke-linejoin="round" stroke-miterlimit="10" stroke-width="4" d="M42.9,61.9" display="inline"/><polygon fill="#FFF" stroke="#000" stroke-linecap="round" stroke-linejoin="round" stroke-miterlimit="10" stroke-width="4" points="6 54 6 10 66 10 66 54 27 54 14 67 14 54" display="inline"/><polygon fill="none" stroke="#000" stroke-linecap="round" stroke-linejoin="round" stroke-miterlimit="10" stroke-width="3" points="23.5 23.5 25.5 21.5 25.5 18.5 23.5 16.5 16.5 16.5 16.5 23.5" display="inline"/><polygon fill="none" stroke="#000" stroke-linecap="round" stroke-linejoin="round" stroke-miterlimit="10" stroke-width="3" points="38.5 23.5 40.5 21.5 40.5 18.5 38.5 16.5 31.5 16.5 31.5 23.5" display="inline"/><polygon fill="none" stroke="#000" stroke-linecap="round" stroke-linejoin="round" stroke-miterlimit="10" stroke-width="3" points="23.5 35.5 25.5 33.5 25.5 30.5 23.5 28.5 16.5 28.5 16.5 35.5" display="inline"/><polygon fill="none" stroke="#000" stroke-linecap="round" stroke-linejoin="round" stroke-miterlimit="10" stroke-width="3" points="38.5 35.5 40.5 33.5 40.5 30.5 38.5 28.5 31.5 28.5 31.5 35.5" display="inline"/><polygon fill="none" stroke="#000" stroke-linecap="round" stroke-linejoin="round" stroke-miterlimit="10" stroke-width="3" points="38.5 47.5 40.5 45.5 40.5 42.5 38.5 40.5 31.5 40.5 31.5 47.5" display="inline"/><polygon fill="none" stroke="#000" stroke-linecap="round" stroke-linejoin="round" stroke-miterlimit="10" stroke-width="3" points="53.5 29.5 55.5 27.5 55.5 24.5 53.5 22.5 46.5 22.5 46.5 29.5" display="inline"/><polygon fill="none" stroke="#000" stroke-linecap="round" stroke-linejoin="round" stroke-miterlimit="10" stroke-width="3" points="53.5 41.5 55.5 39.5 55.5 36.5 53.5 34.5 46.5 34.5 46.5 41.5" display="inline"/></svg>