<svg xmlns="http://www.w3.org/2000/svg" xmlns:xlink="http://www.w3.org/1999/xlink" id="Comments" x="0" y="0" display="none" enable-background="new 0 0 50 50" version="1.1" viewBox="0 0 50 50" xml:space="preserve"><polygon fill="#FFF" stroke="#000" stroke-linecap="round" stroke-linejoin="round" stroke-miterlimit="10" stroke-width="3" points="47.5 21.5 4.5 21.5 4.5 9.5 11.5 9.5 17.5 3.5 32.5 3.5 38.5 9.5 47.5 9.5" display="inline"/><polygon fill="#FFF" stroke="#000" stroke-linecap="round" stroke-linejoin="round" stroke-miterlimit="10" stroke-width="3" points="13.5 16.5 10.5 19.5 10.5 23.5 13.5 26.5 17.5 26.5 20.5 23.5 20.5 19.5 17.5 16.5" display="inline"/><polygon fill="#FFF" stroke="#000" stroke-linecap="round" stroke-linejoin="round" stroke-miterlimit="10" stroke-width="3" points="34.5 16.5 31.5 19.5 31.5 23.5 34.5 26.5 38.5 26.5 41.5 23.5 41.5 19.5 38.5 16.5" display="inline"/><polyline fill="none" stroke="#000" stroke-linecap="round" stroke-linejoin="round" stroke-miterlimit="10" stroke-width="3" points="1.5 46.5 7.5 40.5 15.5 48.5 23.5 40.5 31.5 48.5 39.5 40.5 47.5 48.5" display="inline"/><polyline fill="none" stroke="#000" stroke-linecap="round" stroke-linejoin="round" stroke-miterlimit="10" stroke-width="3" points="15.5 46.5 15.5 31.5 1.5 31.5" display="inline"/></svg>