<svg xmlns="http://www.w3.org/2000/svg" xmlns:xlink="http://www.w3.org/1999/xlink" id="Comments" x="0" y="0" display="none" enable-background="new 0 0 25 25" version="1.1" viewBox="0 0 25 25" xml:space="preserve"><polygon fill="#FFF" stroke="#000" stroke-linecap="round" stroke-linejoin="round" stroke-miterlimit="10" stroke-width="2" points="18 6 16 8 16 12 18 14 22 14 24 12 24 8 22 6 18 6" display="inline"/><line x1="20" x2="20" y1="1" y2="3" fill="none" stroke="#000" stroke-linecap="round" stroke-linejoin="round" stroke-miterlimit="10" stroke-width="2" display="inline"/><line x1="13" x2="15" y1="3" y2="5" fill="none" stroke="#000" stroke-linecap="round" stroke-linejoin="round" stroke-miterlimit="10" stroke-width="2" display="inline"/><polygon fill="#FFF" stroke="#000" stroke-linecap="round" stroke-linejoin="round" stroke-miterlimit="10" stroke-width="2" points="22 20 24 18 24 14 22 12 15 12 12 9 9 9 6 12 3 12 1 14 1 18 3 20 22 20" display="inline"/><line x1="6" x2="8" y1="12" y2="14" fill="none" stroke="#000" stroke-linecap="round" stroke-linejoin="round" stroke-miterlimit="10" stroke-width="2" display="inline"/><line x1="4" x2="4" y1="24" y2="23" fill="#FFF" stroke="#000" stroke-linecap="round" stroke-linejoin="round" stroke-miterlimit="10" stroke-width="2" display="inline"/><line x1="8" x2="8" y1="24" y2="23" fill="#FFF" stroke="#000" stroke-linecap="round" stroke-linejoin="round" stroke-miterlimit="10" stroke-width="2" display="inline"/><line x1="12" x2="12" y1="24" y2="23" fill="#FFF" stroke="#000" stroke-linecap="round" stroke-linejoin="round" stroke-miterlimit="10" stroke-width="2" display="inline"/></svg>