<svg xmlns="http://www.w3.org/2000/svg" xmlns:xlink="http://www.w3.org/1999/xlink" id="Comments" x="0" y="0" display="none" enable-background="new 0 0 50 50" version="1.1" viewBox="0 0 50 50" xml:space="preserve"><polygon fill="#FFF" stroke="#000" stroke-linecap="round" stroke-linejoin="round" stroke-miterlimit="10" stroke-width="3" points="8.5 30.5 14.5 36.5 18.5 36.5 22.5 40.5 28.5 40.5 32.5 36.5 37.5 36.5 42.5 31.5 42.5 19.5 37.5 14.5 32.5 14.5 28.5 10.5 22.5 10.5 18.5 14.5 14.5 14.5 8.5 20.5" display="inline"/><line x1="18.5" x2="23.5" y1="14.5" y2="19.5" fill="none" stroke="#000" stroke-linecap="round" stroke-linejoin="round" stroke-miterlimit="10" stroke-width="3" display="inline"/><line x1="18.5" x2="23.5" y1="36.5" y2="31.5" fill="none" stroke="#000" stroke-linecap="round" stroke-linejoin="round" stroke-miterlimit="10" stroke-width="3" display="inline"/><line x1="48.5" x2="31.5" y1="22.5" y2="22.5" fill="none" stroke="#000" stroke-linecap="round" stroke-linejoin="round" stroke-miterlimit="10" stroke-width="3" display="inline"/><line x1="46.5" x2="31.5" y1="28.5" y2="28.5" fill="none" stroke="#000" stroke-linecap="round" stroke-linejoin="round" stroke-miterlimit="10" stroke-width="3" display="inline"/><line x1="10.5" x2="6.5" y1="10.5" y2="10.5" fill="#FFF" stroke="#000" stroke-linecap="round" stroke-linejoin="round" stroke-miterlimit="10" stroke-width="3" display="inline"/><line x1="16.5" x2="12.5" y1="44.5" y2="44.5" fill="#FFF" stroke="#000" stroke-linecap="round" stroke-linejoin="round" stroke-miterlimit="10" stroke-width="3" display="inline"/><line x1="6.5" x2="2.5" y1="36.5" y2="36.5" fill="#FFF" stroke="#000" stroke-linecap="round" stroke-linejoin="round" stroke-miterlimit="10" stroke-width="3" display="inline"/></svg>