<svg xmlns="http://www.w3.org/2000/svg" xmlns:xlink="http://www.w3.org/1999/xlink" id="Comments" x="0" y="0" display="none" enable-background="new 0 0 50 50" version="1.1" viewBox="0 0 50 50" xml:space="preserve"><polygon fill="#FFF" stroke="#000" stroke-linecap="round" stroke-linejoin="round" stroke-miterlimit="10" stroke-width="3" points="43.5 44.5 47.5 40.5 47.5 34.5 44.5 31.5 31.5 31.5 25.5 25.5 16.5 25.5 11.5 30.5 6.5 30.5 2.5 34.5 2.5 40.5 6.5 44.5 43.5 44.5" display="inline"/><polyline fill="none" stroke="#000" stroke-linecap="round" stroke-linejoin="round" stroke-miterlimit="10" stroke-width="2" points="12 31 19 31 22 34" display="inline"/><polygon fill="#FFF" stroke="#000" stroke-linecap="round" stroke-linejoin="round" stroke-miterlimit="10" stroke-width="3" points="15.5 19.5 12.5 16.5 12.5 12.5 15.5 9.5 23.5 9.5 27.5 5.5 36.5 5.5 40.5 9.5 44.5 9.5 47.5 12.5 47.5 16.5 44.5 19.5 15.5 19.5" display="inline"/><polyline fill="none" stroke="#000" stroke-linecap="round" stroke-linejoin="round" stroke-miterlimit="10" stroke-width="2" points="40 10 33 10 30 13" display="inline"/></svg>