<svg xmlns="http://www.w3.org/2000/svg" xmlns:xlink="http://www.w3.org/1999/xlink" id="Comments" x="0" y="0" display="none" enable-background="new 0 0 80 80" version="1.1" viewBox="0 0 80 80" xml:space="preserve"><polyline fill="#FFF" stroke="#000" stroke-miterlimit="10" stroke-width="3" points="26.5 51.5 26.5 68.5 20.5 68.5 20.5 51.5" display="inline"/><polyline fill="#FFF" stroke="#000" stroke-miterlimit="10" stroke-width="3" points="32.5 51.5 32.5 75.5 26.5 75.5 26.5 51.5" display="inline"/><polyline fill="#FFF" stroke="#000" stroke-miterlimit="10" stroke-width="3" points="38.5 51.5 38.5 62.5 32.5 62.5 32.5 51.5" display="inline"/><polyline fill="#FFF" stroke="#000" stroke-miterlimit="10" stroke-width="3" points="44.5 51.5 44.5 73.5 38.5 73.5 38.5 51.5" display="inline"/><polyline fill="#FFF" stroke="#000" stroke-miterlimit="10" stroke-width="3" points="50.5 51.5 50.5 83.5 44.5 83.5 44.5 51.5" display="inline"/><polyline fill="#FFF" stroke="#000" stroke-miterlimit="10" stroke-width="3" points="56.5 51.5 56.5 75.5 50.5 75.5 50.5 51.5" display="inline"/><polyline fill="#FFF" stroke="#000" stroke-miterlimit="10" stroke-width="3" points="62.5 51.5 62.5 62.5 56.5 62.5 56.5 51.5" display="inline"/><polygon fill="#FFF" stroke="#000" stroke-miterlimit="10" stroke-width="3" points="11.5 6.5 59.5 6.5 55.5 10.5 55.5 17.5 7.5 17.5 7.5 10.5" display="inline"/><polygon fill="#FFF" stroke="#000" stroke-miterlimit="10" stroke-width="3" points="61.5 6.5 13.5 6.5 17.5 10.5 17.5 32.5 65.5 32.5 65.5 10.5" display="inline"/><rect width="62" height="19" x="8" y="32" fill="#FFF" stroke="#000" stroke-miterlimit="10" stroke-width="4" display="inline"/><line x1="14.5" x2="14.5" y1="32.5" y2="51.5" fill="#FFF" stroke="#000" stroke-miterlimit="10" stroke-width="3" display="inline"/><line x1="23.5" x2="54.5" y1="13.5" y2="13.5" fill="none" stroke="#000" stroke-miterlimit="10" stroke-width="3" display="inline"/><line x1="23.5" x2="48.5" y1="19.5" y2="19.5" fill="none" stroke="#000" stroke-miterlimit="10" stroke-width="3" display="inline"/><line x1="23.5" x2="48.5" y1="25.5" y2="25.5" fill="none" stroke="#000" stroke-miterlimit="10" stroke-width="3" display="inline"/><line x1="64" x2="60" y1="39" y2="39" fill="none" stroke="#000" stroke-miterlimit="10" stroke-width="4" display="inline"/></svg>