<svg xmlns="http://www.w3.org/2000/svg" xmlns:xlink="http://www.w3.org/1999/xlink" id="Comments" x="0" y="0" display="none" enable-background="new 0 0 80 80" version="1.1" viewBox="0 0 80 80" xml:space="preserve"><polygon fill="#FFF" stroke="#000" stroke-linecap="round" stroke-linejoin="round" stroke-miterlimit="10" stroke-width="4" points="19 12 7 24 7 39 13 45 8 56 19 51 42 51 54 39 54 24 42 12 19 12" display="inline"/><polygon fill="#FFF" stroke="#000" stroke-linecap="round" stroke-linejoin="round" stroke-miterlimit="10" stroke-width="4" points="43 32 34 41 34 54 43 63 63 63 73 67 68 58 72 54 72 41 63 32 43 32" display="inline"/><line x1="26" x2="22" y1="23" y2="23" fill="#FFF" stroke="#000" stroke-linecap="round" stroke-linejoin="round" stroke-miterlimit="10" stroke-width="4" display="inline"/><line x1="40" x2="36" y1="23" y2="23" fill="#FFF" stroke="#000" stroke-linecap="round" stroke-linejoin="round" stroke-miterlimit="10" stroke-width="4" display="inline"/><line x1="49" x2="45" y1="44" y2="44" fill="#FFF" stroke="#000" stroke-linecap="round" stroke-linejoin="round" stroke-miterlimit="10" stroke-width="4" display="inline"/><line x1="62" x2="58" y1="44" y2="44" fill="#FFF" stroke="#000" stroke-linecap="round" stroke-linejoin="round" stroke-miterlimit="10" stroke-width="4" display="inline"/></svg>