<svg xmlns="http://www.w3.org/2000/svg" xmlns:xlink="http://www.w3.org/1999/xlink" id="Design" x="0" y="0" baseProfile="tiny" version="1.2" viewBox="0 0 25 25" xml:space="preserve"><g><polygon fill="#FFF" stroke="#000" stroke-linecap="round" stroke-linejoin="round" stroke-miterlimit="10" stroke-width="2" points="1 8 9 0 16 0 19 3 14 3 11 6 11 12 15 12 15 16 17.1 18.1 24 18 18 25 9 25 1 17"/><polyline fill="none" stroke="#000" stroke-linecap="round" stroke-linejoin="round" stroke-miterlimit="10" stroke-width="2" points="5 13 6.6 11.5 8.1 13.1"/><line x1="10.5" x2="1.5" y1="8.1" y2="8.1" fill="none" stroke="#000" stroke-linecap="round" stroke-linejoin="round" stroke-miterlimit="10" stroke-width="2"/><line x1="18.9" x2="20" y1="2.8" y2="4" fill="none" stroke="#000" stroke-linecap="round" stroke-linejoin="round" stroke-miterlimit="10" stroke-width="2"/><polygon fill="#FFF" stroke="#000" stroke-linecap="round" stroke-linejoin="round" stroke-miterlimit="10" stroke-width="2" points="18 8 18 6 20 4 22 4 24 6 24 8 22 10 20 10"/><polyline fill="none" stroke="#000" stroke-linecap="round" stroke-linejoin="round" stroke-miterlimit="10" stroke-width="2" points="16.7 17.9 14.4 20.2 12 20.2"/></g></svg>