<svg xmlns="http://www.w3.org/2000/svg" xmlns:xlink="http://www.w3.org/1999/xlink" id="Comments" x="0" y="0" display="none" enable-background="new 0 0 80 80" version="1.1" viewBox="0 0 80 80" xml:space="preserve"><polygon fill="#FFF" stroke="#000" stroke-linecap="round" stroke-linejoin="round" stroke-miterlimit="10" stroke-width="4" points="29 75 29 63 18 63 10 55 10 43 53 43 53 55 45 63 45 75" display="inline"/><polygon fill="#FFF" stroke="#000" stroke-linecap="round" stroke-linejoin="round" stroke-miterlimit="10" stroke-width="3" points="68.5 36.5 68.5 42.5 59.5 51.5 53.5 51.5 53.5 46.5 57.5 46.5 63.5 40.5 63.5 36.5" display="inline"/><polygon fill="#FFF" stroke="#000" stroke-linecap="round" stroke-linejoin="round" stroke-miterlimit="10" stroke-width="4" points="58 36 74 36 74 9 71 6 61 6 58 9" display="inline"/><line x1="45" x2="74" y1="75" y2="75" fill="none" stroke="#000" stroke-linecap="round" stroke-linejoin="round" stroke-miterlimit="10" stroke-width="4" display="inline"/><line x1="29" x2="6" y1="75" y2="75" fill="none" stroke="#000" stroke-linecap="round" stroke-linejoin="round" stroke-miterlimit="10" stroke-width="4" display="inline"/><line x1="66" x2="66" y1="6" y2="2" fill="none" stroke="#000" stroke-linecap="round" stroke-linejoin="round" stroke-miterlimit="10" stroke-width="4" display="inline"/><line x1="20.5" x2="20.5" y1="43.5" y2="51.5" fill="none" stroke="#000" stroke-linecap="round" stroke-linejoin="round" stroke-miterlimit="10" stroke-width="3" display="inline"/><line x1="29.5" x2="29.5" y1="43.5" y2="49.5" fill="none" stroke="#000" stroke-linecap="round" stroke-linejoin="round" stroke-miterlimit="10" stroke-width="3" display="inline"/><line x1="38.5" x2="38.5" y1="43.5" y2="56.5" fill="none" stroke="#000" stroke-linecap="round" stroke-linejoin="round" stroke-miterlimit="10" stroke-width="3" display="inline"/><line x1="72.5" x2="72.5" y1="36.5" y2="43.5" fill="none" stroke="#000" stroke-linecap="round" stroke-linejoin="round" stroke-miterlimit="10" stroke-width="3" display="inline"/><line x1="38.5" x2="38.5" y1="61.5" y2="63.5" fill="none" stroke="#000" stroke-linecap="round" stroke-linejoin="round" stroke-miterlimit="10" stroke-width="3" display="inline"/><line x1="20.5" x2="20.5" y1="63.5" y2="67.5" fill="none" stroke="#000" stroke-linecap="round" stroke-linejoin="round" stroke-miterlimit="10" stroke-width="3" display="inline"/><line x1="49" x2="49" y1="43" y2="40" fill="#FFF" stroke="#000" stroke-linecap="round" stroke-linejoin="round" stroke-miterlimit="10" stroke-width="4" display="inline"/></svg>