<svg xmlns="http://www.w3.org/2000/svg" xmlns:xlink="http://www.w3.org/1999/xlink" id="Comments" x="0" y="0" display="none" enable-background="new 0 0 25 25" version="1.1" viewBox="0 0 25 25" xml:space="preserve"><polygon fill="#FFF" stroke="#000" stroke-linecap="round" stroke-linejoin="round" stroke-miterlimit="10" stroke-width="2" points="24 11 1 11 1 5 4 5 8 1 16 1 20 5 24 5" display="inline"/><polygon fill="#FFF" stroke="#000" stroke-linecap="round" stroke-linejoin="round" stroke-miterlimit="10" stroke-width="2" points="17 8 15 10 15 12 17 14 19 14 21 12 21 10 19 8" display="inline"/><polygon fill="#FFF" stroke="#000" stroke-linecap="round" stroke-linejoin="round" stroke-miterlimit="10" stroke-width="2" points="6 8 4 10 4 12 6 14 8 14 10 12 10 10 8 8" display="inline"/><polyline fill="none" stroke="#000" stroke-linecap="round" stroke-linejoin="round" stroke-miterlimit="10" stroke-width="2" points="1 23 4 20 8 24 12 20 16 24 20 20 24 24" display="inline"/><polyline fill="none" stroke="#000" stroke-linecap="round" stroke-linejoin="round" stroke-miterlimit="10" stroke-width="2" points="8 23 8 15 1 15" display="inline"/></svg>