<svg xmlns="http://www.w3.org/2000/svg" xmlns:xlink="http://www.w3.org/1999/xlink" id="Design" x="0" y="0" enable-background="new 0 0 99 78" version="1.1" viewBox="0 0 99 78" xml:space="preserve"><g><rect width="42" height="74" x="2" y="2" fill="#FFF" stroke="#000" stroke-linecap="round" stroke-linejoin="round" stroke-miterlimit="10" stroke-width="4"/><line x1="2.5" x2="43.5" y1="65.5" y2="65.5" fill="#FFF" stroke="#000" stroke-linecap="round" stroke-linejoin="round" stroke-miterlimit="10" stroke-width="3"/><line x1="43.5" x2="2.5" y1="8.5" y2="8.5" fill="#FFF" stroke="#000" stroke-linecap="round" stroke-linejoin="round" stroke-miterlimit="10" stroke-width="3"/><line x1="25.5" x2="20.5" y1="70.5" y2="70.5" fill="#FFF" stroke="#000" stroke-linecap="round" stroke-linejoin="round" stroke-miterlimit="10" stroke-width="3"/></g><rect width="14" height="74" x="75" y="2" fill="#FFF" stroke="#000" stroke-linecap="round" stroke-linejoin="round" stroke-miterlimit="10" stroke-width="4"/><path fill="#FFF" stroke="#000" stroke-linecap="round" stroke-linejoin="round" stroke-miterlimit="10" stroke-width="4" d="M82.3,55h-0.6C74.1,55,68,48.9,68,41.3v-0.6C68,33.1,74.1,27,81.7,27h0.6C89.9,27,96,33.1,96,40.7v0.6C96,48.9,89.9,55,82.3,55z"/><line x1="75.5" x2="89.5" y1="14.5" y2="14.5" fill="none" stroke="#000" stroke-linecap="round" stroke-linejoin="round" stroke-miterlimit="10" stroke-width="3"/><line x1="82" x2="82" y1="14.5" y2="9.5" fill="none" stroke="#000" stroke-linecap="round" stroke-linejoin="round" stroke-miterlimit="10" stroke-width="2"/><path fill="none" stroke="#000" stroke-linecap="round" stroke-linejoin="round" stroke-miterlimit="10" stroke-width="3" d="M82.3,48.5h-0.6c-4,0-7.2-3.2-7.2-7.2v-0.6c0-4,3.2-7.2,7.2-7.2h0.6c4,0,7.2,3.2,7.2,7.2v0.6C89.5,45.3,86.3,48.5,82.3,48.5z"/><polyline fill="none" stroke="#000" stroke-linecap="round" stroke-linejoin="round" stroke-miterlimit="10" stroke-width="4" points="55 49 61 43 55 37"/><line x1="61" x2="25" y1="43" y2="43" fill="none" stroke="#000" stroke-linecap="round" stroke-linejoin="round" stroke-miterlimit="10" stroke-width="4"/></svg>