<svg xmlns="http://www.w3.org/2000/svg" xmlns:xlink="http://www.w3.org/1999/xlink" id="Comments" x="0" y="0" enable-background="new -309 461 80 80" version="1.1" viewBox="-309 461 80 80" xml:space="preserve"><rect width="6" height="10" x="-272.5" y="475.5" fill="#FFF" stroke="#000" stroke-linecap="round" stroke-linejoin="round" stroke-miterlimit="10" stroke-width="3"/><polygon fill="#FFF" stroke="#000" stroke-linecap="round" stroke-linejoin="round" stroke-miterlimit="10" stroke-width="4" points="-296 502 -296 523 -280 539 -259 539 -243 523 -243 502 -259 486 -280 486"/><line x1="-269.5" x2="-269.5" y1="494.5" y2="520.5" fill="none" stroke="#000" stroke-linecap="round" stroke-linejoin="round" stroke-miterlimit="10" stroke-width="3"/><line x1="-269.5" x2="-269.5" y1="486.5" y2="489.5" fill="none" stroke="#000" stroke-linecap="round" stroke-linejoin="round" stroke-miterlimit="10" stroke-width="3"/><line x1="-243.5" x2="-246.5" y1="511.5" y2="511.5" fill="none" stroke="#000" stroke-linecap="round" stroke-linejoin="round" stroke-miterlimit="10" stroke-width="3"/><line x1="-292.5" x2="-295.5" y1="511.5" y2="511.5" fill="none" stroke="#000" stroke-linecap="round" stroke-linejoin="round" stroke-miterlimit="10" stroke-width="3"/><line x1="-269.5" x2="-269.5" y1="535.5" y2="538.5" fill="none" stroke="#000" stroke-linecap="round" stroke-linejoin="round" stroke-miterlimit="10" stroke-width="3"/><polygon fill="#FFF" stroke="#000" stroke-linecap="round" stroke-linejoin="round" stroke-miterlimit="10" stroke-width="3" points="-271.5 506.5 -274.5 509.5 -274.5 513.5 -271.5 516.5 -267.5 516.5 -264.5 513.5 -264.5 509.5 -267.5 506.5"/><line x1="-287.5" x2="-284.5" y1="494.5" y2="497.5" fill="none" stroke="#000" stroke-linecap="round" stroke-linejoin="round" stroke-miterlimit="10" stroke-width="3"/><line x1="-254.5" x2="-251.5" y1="497.5" y2="494.5" fill="none" stroke="#000" stroke-linecap="round" stroke-linejoin="round" stroke-miterlimit="10" stroke-width="3"/><line x1="-251.5" x2="-254.5" y1="530.5" y2="527.5" fill="none" stroke="#000" stroke-linecap="round" stroke-linejoin="round" stroke-miterlimit="10" stroke-width="3"/><line x1="-284.5" x2="-287.5" y1="527.5" y2="530.5" fill="none" stroke="#000" stroke-linecap="round" stroke-linejoin="round" stroke-miterlimit="10" stroke-width="3"/><rect width="15.7" height="7" x="-277" y="470.8" fill="#FFF" stroke="#000" stroke-linecap="round" stroke-linejoin="round" stroke-miterlimit="10" stroke-width="3"/></svg>