<svg xmlns="http://www.w3.org/2000/svg" xmlns:xlink="http://www.w3.org/1999/xlink" id="Comments" x="0" y="0" baseProfile="tiny" version="1.2" viewBox="0 0 25 25" xml:space="preserve"><polygon fill="#FFF" stroke="#000" stroke-miterlimit="10" stroke-width="2" points="22 9 22 5 20 3 16 3 14 1 11 1 9 3 5 3 3 5 3 9 1 11 1 14 3 16 3 20 5 22 9 22 11 24 14 24 16 22 20 22 22 20 22 16 24 14 24 11"/><line x1="12" x2="8" y1="12" y2="3" fill="none" stroke="#000" stroke-miterlimit="10" stroke-width="2"/><line x1="17" x2="13" y1="3" y2="12" fill="none" stroke="#000" stroke-miterlimit="10" stroke-width="2"/><line x1="13" x2="22" y1="12" y2="8" fill="none" stroke="#000" stroke-miterlimit="10" stroke-width="2"/><line x1="13" x2="22" y1="13" y2="17" fill="none" stroke="#000" stroke-miterlimit="10" stroke-width="2"/><line x1="13" x2="17" y1="13" y2="22" fill="none" stroke="#000" stroke-miterlimit="10" stroke-width="2"/><line x1="12" x2="8" y1="13" y2="22" fill="none" stroke="#000" stroke-miterlimit="10" stroke-width="2"/><line x1="12" x2="3" y1="13" y2="17" fill="none" stroke="#000" stroke-miterlimit="10" stroke-width="2"/><line x1="12" x2="3" y1="12" y2="8" fill="none" stroke="#000" stroke-miterlimit="10" stroke-width="2"/></svg>