<svg xmlns="http://www.w3.org/2000/svg" xmlns:xlink="http://www.w3.org/1999/xlink" id="Comments" x="0" y="0" baseProfile="tiny" version="1.2" viewBox="0 0 25 25" xml:space="preserve"><polygon fill="#FFF" stroke="#000" stroke-linecap="round" stroke-linejoin="round" stroke-miterlimit="10" stroke-width="2" points="3 24 1 22 1 5 3 3 20 3 22 5 22 22 20 24"/><line x1="16" x2="3" y1="11" y2="24" fill="none" stroke="#000" stroke-linecap="round" stroke-linejoin="round" stroke-miterlimit="10" stroke-width="2"/><line x1="20" x2="12" y1="24" y2="16" fill="none" stroke="#000" stroke-linecap="round" stroke-linejoin="round" stroke-miterlimit="10" stroke-width="2"/><polygon fill="#FFF" stroke="#000" stroke-linecap="round" stroke-linejoin="round" stroke-miterlimit="10" stroke-width="2" points="14 8 14 4 17 1 21 1 24 4 24 8 21 11 19 17 17 11"/><polyline fill="#FFF" stroke="#000" stroke-linecap="round" stroke-linejoin="round" stroke-miterlimit="10" stroke-width="2" points="8 6 6 6 4 8 4 10 6 12 8 12 10 10 10 9 8 9"/></svg>