<svg xmlns="http://www.w3.org/2000/svg" xmlns:xlink="http://www.w3.org/1999/xlink" id="Layer_1" x="0" y="0" baseProfile="tiny" version="1.2" viewBox="0 0 80 80" xml:space="preserve"><polygon fill="#FFF" stroke="#010101" stroke-linecap="round" stroke-linejoin="round" stroke-miterlimit="10" stroke-width="4" points="1685 71 1677 63 1677 17 1685 9 1731 9 1739 17 1739 63 1731 71"/><polygon fill="none" stroke="#010101" stroke-linecap="round" stroke-linejoin="round" stroke-miterlimit="10" stroke-width="4" points="1687 48 1687 57 1691 61 1724 61 1728 57 1728 48 1724 44 1691 44"/><line x1="1697.5" x2="1697.5" y1="44.5" y2="60.5" fill="none" stroke="#010101" stroke-linecap="round" stroke-linejoin="round" stroke-miterlimit="10" stroke-width="3"/><line x1="1717.5" x2="1717.5" y1="44.5" y2="60.5" fill="none" stroke="#010101" stroke-linecap="round" stroke-linejoin="round" stroke-miterlimit="10" stroke-width="3"/><line x1="1707.5" x2="1707.5" y1="44.5" y2="60.5" fill="none" stroke="#010101" stroke-linecap="round" stroke-linejoin="round" stroke-miterlimit="10" stroke-width="3"/><polyline fill="none" stroke="#010101" stroke-linecap="round" stroke-linejoin="round" stroke-miterlimit="10" stroke-width="3" points="1717.5 32.5 1722.5 27.5 1727.5 32.5"/><polyline fill="none" stroke="#010101" stroke-linecap="round" stroke-linejoin="round" stroke-miterlimit="10" stroke-width="3" points="1688.5 32.5 1693.5 27.5 1698.5 32.5"/><g><path fill="#FFF" stroke="#010101" stroke-linecap="round" stroke-linejoin="round" stroke-miterlimit="10" stroke-width="4" d="M63,9H17l-8,8v46l8,8h46l8-8V17L63,9z"/><polygon fill="#FFF" stroke="#010101" stroke-linecap="round" stroke-linejoin="round" stroke-miterlimit="10" stroke-width="3" points="6.5 33.5 19.5 46.5 32.5 33.5 32.5 26.5 26.5 20.5 18.5 28.5 11.5 21.5 6.5 26.5"/><polygon fill="#FFF" stroke="#010101" stroke-linecap="round" stroke-linejoin="round" stroke-miterlimit="10" stroke-width="3" points="73.5 33.5 60.5 46.5 47.5 33.5 47.5 26.5 53.5 20.5 61.5 28.5 68.5 21.5 73.5 26.5"/></g><polygon fill="none" stroke="#010101" stroke-linecap="round" stroke-linejoin="round" stroke-miterlimit="10" stroke-width="4" points="54 54 47 61 33 61 26 54 26 48 54 48"/></svg>