<svg xmlns="http://www.w3.org/2000/svg" xmlns:xlink="http://www.w3.org/1999/xlink" id="Comments" x="0" y="0" baseProfile="tiny" version="1.2" viewBox="0 0 50 50" xml:space="preserve"><g><polyline fill="none" points="26.5 20.5 22.5 20.5 20.5 22.5 20.5 26.5 22.5 28.5 26.5 28.5 28.5 26.5 28.5 22.5 26.5 20.5"/><polygon fill="#FFF" points="40.5 17.5 40.5 12.5 36.5 8.5 30.8 8.5 25.7 20.5 26.5 20.5 28.5 22.5 28.5 26.5 26.5 28.5 22.5 28.5 20.5 26.5 20.5 22.5 22.5 20.5 26.5 20.5 31.5 8.5 31.5 8.5 27.5 4.5 21.5 4.5 17.5 8.5 12.5 8.5 8.5 12.5 8.5 17.5 4.5 21.5 4.5 27.5 8.5 31.5 8.5 36.5 12.5 40.5 17.5 40.5 21.5 44.5 27.5 44.5 31.5 40.5 36.5 40.5 40.5 36.5 40.5 31.5 44.5 27.5 44.5 21.5"/></g><path fill="none" stroke="#000" stroke-miterlimit="10" stroke-width="3" d="M40.5,17.5v-5l-4-4h-5l-4-4h-6l-4,4h-5l-4,4v5l-4,4	v6l4,4v5l4,4h5l4,4h6l4-4h5l4-4v-5l4-4v-6L40.5,17.5z"/><line x1="18" x2="22" y1="9" y2="20" fill="none" stroke="#000" stroke-miterlimit="10" stroke-width="2"/><line x1="27" x2="31" y1="20" y2="9" fill="none" stroke="#000" stroke-miterlimit="10" stroke-width="2"/><line x1="29" x2="40" y1="22" y2="18" fill="none" stroke="#000" stroke-miterlimit="10" stroke-width="2"/><line x1="29" x2="40" y1="27" y2="31" fill="none" stroke="#000" stroke-miterlimit="10" stroke-width="2"/><line x1="27" x2="31" y1="29" y2="40" fill="none" stroke="#000" stroke-miterlimit="10" stroke-width="2"/><line x1="22" x2="18" y1="29" y2="40" fill="none" stroke="#000" stroke-miterlimit="10" stroke-width="2"/><line x1="20" x2="9" y1="27" y2="31" fill="none" stroke="#000" stroke-miterlimit="10" stroke-width="2"/><line x1="20" x2="9" y1="22" y2="18" fill="none" stroke="#000" stroke-miterlimit="10" stroke-width="2"/><polygon fill="none" stroke="#000" stroke-miterlimit="10" stroke-width="3" points="28.5 26.5 26.5 28.5 22.5 28.5 20.5 26.5 20.5 22.5 22.5 20.5 26.5 20.5 28.5 22.5"/></svg>