<svg xmlns="http://www.w3.org/2000/svg" xmlns:xlink="http://www.w3.org/1999/xlink" id="Layer_1" x="0" y="0" baseProfile="tiny" version="1.2" viewBox="0 0 80 80" xml:space="preserve"><g><polygon fill="#FFF" stroke="#010101" stroke-linecap="round" stroke-linejoin="round" stroke-miterlimit="10" stroke-width="4" points="13 66 13 42 17 38 30 38 40 28 40 12 42 10 48 10 52 14 52 27 49 30 49 34 63 34 67 38 67 66 63 70 30 70 17 70"/><line x1="30" x2="30" y1="38" y2="42" fill="none" stroke="#010101" stroke-linecap="round" stroke-linejoin="round" stroke-miterlimit="10" stroke-width="4"/><line x1="30" x2="30" y1="66" y2="70" fill="none" stroke="#010101" stroke-linecap="round" stroke-linejoin="round" stroke-miterlimit="10" stroke-width="4"/><polyline fill="none" stroke="#010101" stroke-linecap="round" stroke-linejoin="round" stroke-miterlimit="10" stroke-width="4" points="67 58 46 58 43 55 43 49 46 46 47 46"/><polyline fill="none" stroke="#010101" stroke-linecap="round" stroke-linejoin="round" stroke-miterlimit="10" stroke-width="4" points="50 34 46 38 46 43 46 46 67 46"/><polyline fill="none" stroke="#010101" stroke-linecap="round" stroke-linejoin="round" stroke-miterlimit="10" stroke-width="4" points="50 70 45 65 45 60 45 58"/></g></svg>