<svg xmlns="http://www.w3.org/2000/svg" xmlns:xlink="http://www.w3.org/1999/xlink" id="Layer_1" x="0" y="0" baseProfile="tiny" version="1.2" viewBox="0 0 80 80" xml:space="preserve"><polygon fill="#FFF" stroke="#010101" stroke-linecap="round" stroke-linejoin="round" stroke-miterlimit="10" stroke-width="4" points="1685 71 1677 63 1677 17 1685 9 1731 9 1739 17 1739 63 1731 71"/><polygon fill="none" stroke="#010101" stroke-linecap="round" stroke-linejoin="round" stroke-miterlimit="10" stroke-width="4" points="1687 48 1687 57 1691 61 1724 61 1728 57 1728 48 1724 44 1691 44"/><line x1="1697.5" x2="1697.5" y1="44.5" y2="60.5" fill="none" stroke="#010101" stroke-linecap="round" stroke-linejoin="round" stroke-miterlimit="10" stroke-width="3"/><line x1="1717.5" x2="1717.5" y1="44.5" y2="60.5" fill="none" stroke="#010101" stroke-linecap="round" stroke-linejoin="round" stroke-miterlimit="10" stroke-width="3"/><line x1="1707.5" x2="1707.5" y1="44.5" y2="60.5" fill="none" stroke="#010101" stroke-linecap="round" stroke-linejoin="round" stroke-miterlimit="10" stroke-width="3"/><polyline fill="none" stroke="#010101" stroke-linecap="round" stroke-linejoin="round" stroke-miterlimit="10" stroke-width="3" points="1717.5 32.5 1722.5 27.5 1727.5 32.5"/><polyline fill="none" stroke="#010101" stroke-linecap="round" stroke-linejoin="round" stroke-miterlimit="10" stroke-width="3" points="1688.5 32.5 1693.5 27.5 1698.5 32.5"/><g><path fill="#FFF" stroke="#010101" stroke-linecap="round" stroke-linejoin="round" stroke-miterlimit="10" stroke-width="4" d="M63,9H17l-8,8v46l8,8h46l8-8V17L63,9z"/><polyline fill="none" stroke="#010101" stroke-linecap="round" stroke-linejoin="round" stroke-miterlimit="10" stroke-width="3" points="49.5 32.5 54.5 27.5 59.5 32.5"/><polyline fill="none" stroke="#010101" stroke-linecap="round" stroke-linejoin="round" stroke-miterlimit="10" stroke-width="3" points="20.5 32.5 25.5 27.5 30.5 32.5"/></g><polygon fill="#FFF" stroke="#010101" stroke-linecap="round" stroke-linejoin="round" stroke-miterlimit="10" stroke-width="4" points="60 53 51 62 29 62 20 53 20 43 60 43"/></svg>