<svg xmlns="http://www.w3.org/2000/svg" xmlns:xlink="http://www.w3.org/1999/xlink" id="Comments" x="0" y="0" baseProfile="tiny" version="1.2" viewBox="0 0 50 50" xml:space="preserve"><polygon fill="#FFF" stroke="#000" stroke-linecap="round" stroke-linejoin="round" stroke-miterlimit="10" stroke-width="3" points="11.5 44.5 6.5 39.5 6.5 11.5 11.5 6.5 38.5 6.5 43.5 11.5 43.5 39.5 38.5 44.5"/><line x1="35" x2="11" y1="19" y2="43" fill="none" stroke="#000" stroke-linecap="round" stroke-linejoin="round" stroke-miterlimit="10" stroke-width="2"/><line x1="39" x2="25" y1="44" y2="30" fill="none" stroke="#000" stroke-linecap="round" stroke-linejoin="round" stroke-miterlimit="10" stroke-width="2"/><polygon fill="#FFF" stroke="#000" stroke-linecap="round" stroke-linejoin="round" stroke-miterlimit="10" stroke-width="2" points="31 15 31 7 35 3 43 3 47 7 47 15 43 19 39 31 35 19"/><polyline fill="#FFF" stroke="#000" stroke-linecap="round" stroke-linejoin="round" stroke-miterlimit="10" stroke-width="3" points="19.5 12.5 15.5 12.5 12.5 15.5 12.5 20.5 15.5 23.5 19.5 23.5 22.5 20.5 22.5 17.5 18.5 17.5"/><rect width="1" height="1" x="38.5" y="10.5" fill="#FFF" stroke="#000" stroke-width="1"/></svg>