<svg xmlns="http://www.w3.org/2000/svg" xmlns:xlink="http://www.w3.org/1999/xlink" id="Comments" x="0" y="0" baseProfile="tiny" version="1.2" viewBox="0 0 50 50" xml:space="preserve"><path fill="#FFF" d="M40.5,12.5l-2-6l-6,2l-2-6l-6,2l2,6l-12,4l-2-6l-6,2l2,6l-6,2l2,6l6-2l4,12l-6,2l2,6l6-2l2,6l6-2l-2-6l12-4	l2,6l6-2l-2-6l6-2l-2-6l-6,2l-4-12.1l-6,2l4,12.1l-12,4l-4-12L40.5,12.5z"/><path fill="none" stroke="#000" stroke-miterlimit="10" stroke-width="3" d="M46.5,30.5l-2-6l-6,2l-4-12l6-2l-2-6l-6,2l-2-6l-6,2	l2,6l-12,4l-2-6l-6,2l2,6l-6,2l2,6l6-2l4,12l-6,2l2,6l6-2l2,6l6-2l-2-6l12-4l2,6l6-2l-2-6L46.5,30.5z"/><polyline fill="none" stroke="#000" stroke-miterlimit="10" stroke-width="3" points="32.5 28.5 20.5 32.5 16.5 20.5 28.5 16.5 32.5 28.5"/></svg>