<svg xmlns="http://www.w3.org/2000/svg" xmlns:pdc="http://www.pebble.com/2015/pdc" width="12cm" height="5.25cm" version="1.1" viewBox="0 0 1200 400"><title>Example arcs01 - arc commands in path data</title><desc>Picture of a pie chart with two pie wedges and a picture of a line with arc blips</desc><rect width="1198" height="398" x="1" y="1" fill="none" stroke="#00f" stroke-width="1"/><path fill="red" stroke="#00f" stroke-width="5" d="M300,200 h-150 a150,150 0 1,0 150,-150 z"><pdc:annotation description="Element contains unsupported arc command(s)."><pdc:highlight width="300" height="300" x="150" y="50"/></pdc:annotation></path><path fill="#ff0" stroke="#00f" stroke-width="5" d="M275,175 v-150 a150,150 0 0,0 -150,150 z"><pdc:annotation description="Element contains unsupported arc command(s)."><pdc:highlight width="300" height="300" x="125" y="25"/></pdc:annotation></path><path fill="none" stroke="red" stroke-width="5" d="M600,350 l 50,-25 a25,25 -30 0,1 50,-25 l 50,-25 a25,50 -30 0,1 50,-25 l 50,-25 a25,75 -30 0,1 50,-25 l 50,-25 a25,100 -30 0,1 50,-25 l 50,-25"><pdc:annotation description="Element contains unsupported arc command(s)."><pdc:highlight width="76.36" height="76.36" x="636.82" y="274.32"/><pdc:highlight width="104.17" height="124.61" x="722.91" y="200.2"/><pdc:highlight width="132.05" height="172.91" x="808.97" y="126.04"/><pdc:highlight width="159.95" height="221.23" x="895.03" y="51.89"/></pdc:annotation></path></svg>