<svg xmlns="http://www.w3.org/2000/svg" xmlns:xlink="http://www.w3.org/1999/xlink" id="Comments" x="0" y="0" enable-background="new -250 372 50 50" version="1.1" viewBox="-250 372 50 50" xml:space="preserve"><g><rect width="0" height="5.6" x="-225" y="380.4" fill="#FFF" stroke="#000" stroke-linecap="round" stroke-linejoin="round" stroke-miterlimit="10" stroke-width="3"/><polygon fill="#FFF" stroke="#000" stroke-linecap="round" stroke-linejoin="round" stroke-miterlimit="10" stroke-width="3" points="-240 395.4 -240 407.2 -230.9 416.2 -219.1 416.2 -210 407.2 -210 395.4 -219.1 386.3 -230.9 386.3"/><line x1="-225" x2="-225" y1="393.6" y2="405.8" fill="none" stroke="#000" stroke-linecap="round" stroke-linejoin="round" stroke-miterlimit="10" stroke-width="2"/><line x1="-225" x2="-225" y1="386.6" y2="389.3" fill="none" stroke="#000" stroke-linecap="round" stroke-linejoin="round" stroke-miterlimit="10" stroke-width="2"/><line x1="-210.3" x2="-213.5" y1="400.7" y2="400.7" fill="none" stroke="#000" stroke-linecap="round" stroke-linejoin="round" stroke-miterlimit="10" stroke-width="2"/><line x1="-236.5" x2="-239.7" y1="400.7" y2="400.7" fill="none" stroke="#000" stroke-linecap="round" stroke-linejoin="round" stroke-miterlimit="10" stroke-width="2"/><line x1="-225" x2="-225" y1="412.8" y2="416" fill="none" stroke="#000" stroke-linecap="round" stroke-linejoin="round" stroke-miterlimit="10" stroke-width="2"/><polygon fill="#FFF" stroke="#000" stroke-linecap="round" stroke-linejoin="round" stroke-miterlimit="10" stroke-width="2" points="-226.1 397.9 -227.8 399.6 -227.8 401.9 -226.1 403.5 -223.9 403.5 -222.2 401.9 -222.2 399.6 -223.9 397.9"/><line x1="-235.2" x2="-233.5" y1="391.1" y2="392.8" fill="none" stroke="#000" stroke-linecap="round" stroke-linejoin="round" stroke-miterlimit="10" stroke-width="2"/><line x1="-216.5" x2="-214.8" y1="392.8" y2="391.1" fill="none" stroke="#000" stroke-linecap="round" stroke-linejoin="round" stroke-miterlimit="10" stroke-width="2"/><line x1="-214.8" x2="-216.5" y1="411.5" y2="409.8" fill="none" stroke="#000" stroke-linecap="round" stroke-linejoin="round" stroke-miterlimit="10" stroke-width="2"/><line x1="-233.5" x2="-235.2" y1="409.8" y2="411.5" fill="none" stroke="#000" stroke-linecap="round" stroke-linejoin="round" stroke-miterlimit="10" stroke-width="2"/><rect width="8.9" height="4" x="-229.2" y="377.8" fill="#FFF" stroke="#000" stroke-linecap="round" stroke-linejoin="round" stroke-miterlimit="10" stroke-width="2"/></g></svg>