<svg xmlns="http://www.w3.org/2000/svg" xmlns:xlink="http://www.w3.org/1999/xlink" id="Comments" x="0" y="0" enable-background="new 0 0 80 80" version="1.1" viewBox="0 0 80 80" xml:space="preserve"><g><polygon fill="#FFF" stroke="#000" stroke-linecap="round" stroke-linejoin="round" stroke-miterlimit="10" stroke-width="4" points="39.5 57 39.5 64 23.5 69 23.5 62 33.5 59 33.5 51"/><polygon fill="#FFF" stroke="#000" stroke-linecap="round" stroke-linejoin="round" stroke-miterlimit="10" stroke-width="4" points="50.5 57 39.5 57 29.5 47 29.5 32 43.5 18 39.5 14 39.5 3 50.5 3 78.5 31 62.5 31 50.5 43 57.5 43 57.5 67 50.5 60"/><line x1="57.5" x2="57.5" y1="20" y2="20" fill="none" stroke="#000" stroke-linecap="round" stroke-linejoin="round" stroke-miterlimit="10" stroke-width="4"/><polyline fill="none" stroke="#000" stroke-linecap="round" stroke-linejoin="round" stroke-miterlimit="10" stroke-width="3" points="29 47.5 19 47.5 11 39.5 11 24.5 4 17.5"/><polyline fill="none" stroke="#000" stroke-linecap="round" stroke-linejoin="round" stroke-miterlimit="10" stroke-width="3" points="44 18.5 46 20.5 50 20.5"/><line x1="50.5" x2="50.5" y1="57" y2="51" fill="none" stroke="#000" stroke-linecap="round" stroke-linejoin="round" stroke-miterlimit="10" stroke-width="4"/><line x1="50.5" x2="41.5" y1="43" y2="43" fill="none" stroke="#000" stroke-linecap="round" stroke-linejoin="round" stroke-miterlimit="10" stroke-width="4"/><line x1="57.5" x2="60.5" y1="67" y2="70" fill="none" stroke="#000" stroke-linecap="round" stroke-linejoin="round" stroke-miterlimit="10" stroke-width="4"/><polyline fill="#FFF" stroke="#000" stroke-linecap="round" stroke-linejoin="round" stroke-miterlimit="10" stroke-width="4" points="66.5 43 58.5 35 49.5 35 49.5 29"/><line x1="23.5" x2="23.5" y1="69" y2="74" fill="none" stroke="#000" stroke-linecap="round" stroke-linejoin="round" stroke-miterlimit="10" stroke-width="4"/><line x1="46" x2="49" y1="9.5" y2="12.5" fill="none" stroke="#000" stroke-linecap="round" stroke-linejoin="round" stroke-miterlimit="10" stroke-width="3"/><line x1="74.5" x2="70.5" y1="27" y2="31" fill="none" stroke="#000" stroke-linecap="round" stroke-linejoin="round" stroke-miterlimit="10" stroke-width="4"/></g><line x1="16.5" x2="78.5" y1="78.5" y2="78.5" fill="none" stroke="#000" stroke-linecap="round" stroke-linejoin="round" stroke-miterlimit="10" stroke-width="3"/></svg>